<svg width="60" height="60" viewBox="0 0 60 60" fill="block"
  xmlns="http://www.w3.org/2000/svg" class="icon-github">
  <path fill-rule="evenodd" clip-rule="evenodd" d="M30 0C13.425 0 0 13.763 0 30.755c0 13.593 8.6 25.11 20.516 29.187 1.491.284 2.044-.66 2.044-1.491 0-.736-.019-2.662-.037-5.23-8.342 1.85-10.11-4.115-10.11-4.115-1.363-3.55-3.334-4.513-3.334-4.513-2.725-1.907.203-1.869.203-1.869 3.002.227 4.604 3.172 4.604 3.172 2.67 4.701 7.016 3.342 8.73 2.549.275-1.983 1.049-3.342 1.896-4.116-6.648-.755-13.646-3.398-13.646-15.18 0-3.36 1.16-6.097 3.094-8.25-.314-.792-1.345-3.908.276-8.137 0 0 2.523-.83 8.25 3.153 2.394-.68 4.954-1.02 7.514-1.038 2.541.019 5.12.359 7.514 1.038 5.727-3.983 8.25-3.152 8.25-3.152 1.64 4.228.608 7.362.295 8.137 1.915 2.152 3.075 4.89 3.075 8.25 0 11.819-7.016 14.405-13.701 15.179 1.068.944 2.044 2.832 2.044 5.702 0 4.115-.037 7.42-.037 8.439 0 .83.534 1.775 2.063 1.472C51.418 55.864 60 44.348 60 30.774 60 13.764 46.575 0 30 0z"></path>
</svg>